<?xml version="1.0" encoding="UTF-8" standalone="no"?><!DOCTYPE svg PUBLIC "-//W3C//DTD SVG 1.1//EN" "http://www.w3.org/Graphics/SVG/1.1/DTD/svg11.dtd"><svg width="100%" height="100%" viewBox="0 0 152 152" version="1.1" xmlns="http://www.w3.org/2000/svg" xmlns:xlink="http://www.w3.org/1999/xlink" xml:space="preserve" xmlns:serif="http://www.serif.com/" style="fill-rule:evenodd;clip-rule:evenodd;stroke-linejoin:round;stroke-miterlimit:2;"><g id="Desktop-Audio" serif:id="Desktop Audio" transform="matrix(0.161636,0,0,0.161636,34.6224,26.6989)"><path d="M475.09,16.74l-438.18,0c-6.223,0 -11.316,5.094 -11.316,11.309l-0,257.1c-0,6.211 5.094,11.316 11.316,11.316l438.164,0c6.207,0 11.309,-5.105 11.309,-11.316l0.008,-257.1c-0,-6.223 -5.102,-11.312 -11.309,-11.312l0.008,0.003Zm0,268.41l-438.18,0l0,-257.1l438.18,0l0,257.1Zm-156.726,-194.391c-1.947,-1.473 -4.464,-1.973 -6.824,-1.348l-75.403,20.159c-3.479,0.918 -5.906,4.06 -5.911,7.658l-0,64.803c-3.811,-1.409 -7.842,-2.125 -11.905,-2.104c-15.555,-0 -27.777,9.681 -27.777,22.063c-0,12.384 12.181,22.065 27.736,22.065c15.555,0 27.3,-9.364 27.777,-21.388l-0,-0.515l0.003,-78.81l59.524,-15.872l0,48.331c-3.81,-1.406 -7.844,-2.118 -11.905,-2.101c-15.555,-0 -27.777,9.682 -27.777,22.063c0,12.381 12.222,22.062 27.777,22.062c15.555,0 27.777,-9.681 27.777,-22.062l0,-78.689c0.006,-2.471 -1.136,-4.802 -3.095,-6.31l0.003,-0.005Zm-100.083,117.427c-7.144,-0 -11.904,-3.729 -11.904,-6.191c-0,-2.462 4.76,-6.191 11.904,-6.191c7.145,0 11.905,3.729 11.905,6.191c0,2.459 -4.76,6.191 -11.905,6.191Zm75.395,-26.231c-7.144,-0 -11.904,-3.729 -11.904,-6.191c-0,-2.462 4.76,-6.191 11.904,-6.191c7.145,0 11.905,3.729 11.905,6.191c0.003,2.459 -4.76,6.191 -11.902,6.191l-0.003,-0Zm58.91,118.182l-193.164,-0c-3.311,-0 -6.022,2.71 -6.022,6.017l-20,136.808c0,3.305 2.711,6.022 6.022,6.022l233.156,-0c3.303,-0 6.017,-2.717 6.017,-6.022l-19.995,-136.808c-0,-3.311 -2.715,-6.019 -6.018,-6.019l0.004,0.002Zm18,130.826l-229.164,0l18,-124.808l193.164,-0l18,124.808Zm-80.035,-94.154c-1.079,-0.619 -2.474,-0.829 -3.781,-0.567l-41.784,8.47c-1.928,0.386 -3.273,1.706 -3.276,3.218l-0,27.228c-2.112,-0.592 -4.346,-0.893 -6.597,-0.884c-8.62,-0 -15.393,4.068 -15.393,9.27c0,5.203 6.75,9.271 15.37,9.271c8.62,-0 15.128,-3.935 15.392,-8.987l0,-0.216l0.002,-33.113l32.985,-6.669l0,20.307c-2.111,-0.591 -4.347,-0.89 -6.597,-0.883c-8.62,0 -15.392,4.068 -15.392,9.27c-0,5.202 6.772,9.27 15.392,9.27c8.62,-0 15.393,-4.068 15.393,-9.27l-0,-33.062c0.003,-1.038 -0.63,-2.017 -1.716,-2.651l0.002,-0.002Zm-55.46,49.338c-3.959,-0 -6.597,-1.567 -6.597,-2.601c-0,-1.035 2.638,-2.601 6.597,-2.601c3.959,-0 6.597,1.566 6.597,2.601c-0,1.033 -2.638,2.601 -6.597,2.601Zm41.78,-11.021c-3.959,-0 -6.597,-1.567 -6.597,-2.601c-0,-1.035 2.638,-2.602 6.597,-2.602c3.959,0 6.597,1.567 6.597,2.602c0.001,1.033 -2.638,2.601 -6.596,2.601l-0.001,-0Z" style="fill:#fff;fill-rule:nonzero;"/></g></svg>
