<?xml version="1.0" encoding="UTF-8" standalone="no"?><!DOCTYPE svg PUBLIC "-//W3C//DTD SVG 1.1//EN" "http://www.w3.org/Graphics/SVG/1.1/DTD/svg11.dtd"><svg width="100%" height="100%" viewBox="0 0 152 152" version="1.1" xmlns="http://www.w3.org/2000/svg" xmlns:xlink="http://www.w3.org/1999/xlink" xml:space="preserve" xmlns:serif="http://www.serif.com/" style="fill-rule:evenodd;clip-rule:evenodd;stroke-linejoin:round;stroke-miterlimit:2;"><g id="Overhead-Desk" serif:id="Overhead Desk" transform="matrix(0.11316,0,0,0.11316,45.2643,38.3322)"><path d="M511.243,500.64l-103.249,-223.382c-2.631,-3.753 -5.262,-5.018 -7.893,-5.251l-240.112,0c-3.113,0 -5.945,1.809 -7.258,4.633l-104,224c-1.152,2.48 -0.961,5.367 0.512,7.672c1.473,2.304 4.019,3.695 6.746,3.695l448,-0c2.727,-0 5.273,-1.391 6.742,-3.695c1.473,-2.305 1.664,-5.192 0.512,-7.672Zm-442.708,-4.64l96.566,-208l231.252,-0l95.115,208.003l-422.933,-0.003Zm27.465,-128l-0,-32c-0,-4.414 -3.586,-8 -8,-8l-24,-0l-0,-256.21c2.953,-2.234 5.559,-4.84 7.793,-7.793l120.21,-0l-0,56c-0,4.414 3.586,8 8,8l24,-0l-0,24c-0,4.414 3.586,8 8,8l96,-0c4.414,-0 8,-3.586 8,-8l-0,-24l24,-0c4.414,-0 8,-3.586 8,-8l-0,-64c-0,-4.414 -3.586,-8 -8,-8l-48,-0l-0,-24c-0,-4.414 -3.586,-8 -8,-8l-232.21,-0c-7.305,-9.656 -18.777,-16 -31.793,-16c-22.055,-0 -40,17.945 -40,40c-0,13.016 6.344,24.488 16,31.793l-0,256.21l-8,-0c-4.414,-0 -8,3.586 -8,8l-0,32c-0,4.414 3.586,8 8,8l80,-0c4.414,-0 8,-3.586 8,-8Zm224,-224l-80,-0l-0,-16l80,-0l-0,16Zm32,-32l-144,-0l-0,-48l144,-0l-0,48Zm-56,-64l-32,-0l-0,-16l32,-0l-0,16Zm-48,-16l-0,16l-168.81,-0c0.527,-2.586 0.809,-5.266 0.809,-8c-0,-2.734 -0.282,-5.414 -0.809,-8l168.81,-0Zm-208,-16c13.23,-0 24,10.77 24,24c-0,13.23 -10.77,24 -24,24c-13.23,-0 -24,-10.77 -24,-24c-0,-13.23 10.77,-24 24,-24Zm-8,63.191c2.586,0.527 5.266,0.809 8,0.809c2.734,-0 5.414,-0.282 8,-0.809l-0,248.81l-16,-0l-0,-248.81Zm48,280.81l-64,-0l-0,-16l64,-0l-0,16Zm144,-280.001l16,-0l-0,16l-16,-0l-0,-16Z" style="fill:#fff;fill-rule:nonzero;"/></g></svg>
