<?xml version="1.0" encoding="UTF-8" standalone="no"?><!DOCTYPE svg PUBLIC "-//W3C//DTD SVG 1.1//EN" "http://www.w3.org/Graphics/SVG/1.1/DTD/svg11.dtd"><svg width="100%" height="100%" viewBox="0 0 152 152" version="1.1" xmlns="http://www.w3.org/2000/svg" xmlns:xlink="http://www.w3.org/1999/xlink" xml:space="preserve" xmlns:serif="http://www.serif.com/" style="fill-rule:evenodd;clip-rule:evenodd;stroke-linejoin:round;stroke-miterlimit:2;"><g id="Wireless" transform="matrix(0.134727,0,0,0.134727,41.5096,29.1841)"><path d="M234.67,512l-170.67,0c-5.898,0 -10.668,-4.769 -10.668,-10.668l0,-245.33c0,-5.887 4.77,-10.668 10.668,-10.668l170.67,0c5.898,0 10.668,4.777 10.668,10.668l-0,245.33c-0.004,5.898 -4.77,10.668 -10.668,10.668Zm-160,-21.332l149.33,0l-0,-224l-149.33,0l-0,224Zm117.33,-127.998l-85.332,0c-5.898,0 -10.668,-4.769 -10.668,-10.668l0,-53.332c0,-5.898 4.77,-10.668 10.668,-10.668l85.332,0c5.898,0 10.668,4.769 10.668,10.668l0,53.332c0,5.898 -4.769,10.668 -10.668,10.668Zm-74.668,-21.336l64,0l0,-32l-64,0l0,32Zm85.338,-74.664c-5.898,0 -10.668,-4.777 -10.668,-10.668l-0,-117.33c-0,-5.887 4.769,-10.668 10.668,-10.668c5.898,0 10.668,4.777 10.668,10.668l-0,117.33c-0.004,5.887 -4.77,10.668 -10.668,10.668Zm245.33,117.33l-170.67,0c-5.898,0 -10.668,-4.769 -10.668,-10.668l0.004,-245.33c-0,-5.887 4.769,-10.668 10.668,-10.668l170.67,0c5.898,0 10.668,4.777 10.668,10.668l-0,245.33c-0.004,5.898 -4.773,10.668 -10.672,10.668l0,0Zm-160,-21.332l149.33,0l0,-224l-149.33,0l0,224Zm117.33,-127.998l-85.332,-0c-5.898,-0 -10.668,-4.777 -10.668,-10.668l0,-53.332c0,-5.887 4.769,-10.668 10.668,-10.668l85.332,-0c5.898,-0 10.668,4.777 10.668,10.668l0,53.332c0,5.887 -4.769,10.668 -10.668,10.668Zm-74.664,-21.336l64,0l0,-32l-64,0l0,32Zm85.334,-74.664c-5.898,-0 -10.668,-4.777 -10.668,-10.668l0,-117.33c0,-5.887 4.769,-10.668 10.668,-10.668c5.899,-0 10.668,4.777 10.668,10.668l0,117.33c0,5.887 -4.769,10.668 -10.668,10.668Zm-106.67,-0c-5.898,-0 -10.668,-4.777 -10.668,-10.668l0.004,-117.33c-0,-5.887 4.769,-10.668 10.668,-10.668c5.898,-0 10.668,4.777 10.668,10.668l-0,117.33c-0.004,5.887 -4.773,10.668 -10.672,10.668l0,-0Z" style="fill:#fff;fill-rule:nonzero;"/></g></svg>
