<?xml version="1.0" encoding="UTF-8" standalone="no"?><!DOCTYPE svg PUBLIC "-//W3C//DTD SVG 1.1//EN" "http://www.w3.org/Graphics/SVG/1.1/DTD/svg11.dtd"><svg width="100%" height="100%" viewBox="0 0 152 152" version="1.1" xmlns="http://www.w3.org/2000/svg" xmlns:xlink="http://www.w3.org/1999/xlink" xml:space="preserve" xmlns:serif="http://www.serif.com/" style="fill-rule:evenodd;clip-rule:evenodd;stroke-linejoin:round;stroke-miterlimit:2;"><path id="Active-Screen-2" serif:id="Active Screen 2" d="M91.613,75.212l-31.222,-0c-0.536,-0 -0.974,0.438 -0.974,0.972l-3.232,22.114c-0,0.534 0.438,0.973 0.973,0.973l37.686,-0c0.534,-0 0.973,-0.439 0.973,-0.973l-3.232,-22.114c0,-0.535 -0.439,-0.972 -0.973,-0.972l0.001,-0Zm2.91,21.146l-37.042,0l2.91,-20.173l31.222,-0l2.91,20.173Zm16.891,-66.953l-70.826,-0c-1.005,-0 -1.829,0.823 -1.829,1.828l0,41.556c0,1.004 0.824,1.829 1.829,1.829l70.823,0c1.004,0 1.828,-0.825 1.828,-1.829l0.002,-41.556c-0,-1.006 -0.825,-1.829 -1.828,-1.829l0.001,0.001Zm0,43.384l-70.826,0l0,-41.556l70.826,-0l0,41.556Zm-50.222,4.324l29.452,0.087l2.478,17.718l-34.222,-0.014l2.292,-17.791Z" style="fill:#fff;fill-rule:nonzero;"/></svg>
