<?xml version="1.0" encoding="UTF-8" standalone="no"?><!DOCTYPE svg PUBLIC "-//W3C//DTD SVG 1.1//EN" "http://www.w3.org/Graphics/SVG/1.1/DTD/svg11.dtd"><svg width="100%" height="100%" viewBox="0 0 152 152" version="1.1" xmlns="http://www.w3.org/2000/svg" xmlns:xlink="http://www.w3.org/1999/xlink" xml:space="preserve" xmlns:serif="http://www.serif.com/" style="fill-rule:evenodd;clip-rule:evenodd;stroke-linejoin:round;stroke-miterlimit:2;"><g transform="matrix(0.187339,0,0,0.187339,28.0418,16.3787)"><path d="M92.16,256l0,10.598c0,4.383 -3.555,7.938 -7.938,7.938c-4.382,-0 -7.933,-3.555 -7.933,-7.938l-0,-10.598c-0,-4.383 3.551,-7.938 7.934,-7.938c4.382,0 7.937,3.555 7.937,7.938Zm20.48,-34.406c-4.383,0 -7.937,3.555 -7.937,7.938l-0,58.211c-0,4.382 3.554,7.937 7.937,7.937c4.383,0 7.934,-3.555 7.934,-7.938l-0,-58.211c-0.028,-4.371 -3.563,-7.91 -7.934,-7.937Zm28.672,-31.742l0,-0.004c-2.109,-0.012 -4.137,0.82 -5.629,2.313c-1.488,1.488 -2.32,3.515 -2.308,5.625l-0,116.43c-0,4.382 3.554,7.937 7.937,7.937c4.383,0 7.934,-3.555 7.934,-7.937l-0,-116.43c0.004,-4.364 -3.52,-7.907 -7.883,-7.938l-0.051,0.004Zm28.621,42.344l0,-0.004c-4.383,0 -7.938,3.555 -7.938,7.938l0,37.02l0,-0.004c0.333,4.152 3.801,7.347 7.961,7.347c4.164,0 7.629,-3.195 7.965,-7.347l0,-37.016c0,-4.383 -3.555,-7.938 -7.937,-7.938l-0.051,0.004Zm28.672,-10.598l-0,-0.004c-4.371,0.027 -7.91,3.566 -7.938,7.938l0,58.211c0,4.382 3.555,7.937 7.938,7.937c4.383,0 7.934,-3.555 7.934,-7.937l-0,-58.211c-0,-4.364 -3.52,-7.911 -7.883,-7.938l-0.051,0.004Zm28.672,21.195l-0,-0.004c-2.125,0.016 -4.152,0.879 -5.633,2.398c-1.484,1.52 -2.293,3.571 -2.254,5.692l0,20.992c0,4.383 3.555,7.937 7.938,7.937c4.383,0 7.937,-3.554 7.937,-7.937l0,-20.992c0.055,-2.133 -0.758,-4.199 -2.254,-5.727c-1.496,-1.523 -3.547,-2.375 -5.683,-2.363l-0.051,0.004Zm28.723,-52.945c-2.109,-0.012 -4.137,0.82 -5.625,2.313c-1.492,1.488 -2.324,3.515 -2.313,5.625l0,116.43c0,4.382 3.555,7.937 7.938,7.937c4.383,0 7.937,-3.555 7.937,-7.937l0,-116.43c0.012,-2.11 -0.82,-4.137 -2.312,-5.625c-1.488,-1.493 -3.516,-2.325 -5.625,-2.313Zm28.672,42.344c-2.109,-0.012 -4.137,0.82 -5.625,2.309c-1.492,1.492 -2.324,3.519 -2.313,5.629l0,37.02l0,-0.004c0,4.382 3.555,7.937 7.938,7.937c4.383,0 7.937,-3.555 7.937,-7.937l0,-37.016c0,-2.106 -0.835,-4.125 -2.324,-5.614c-1.488,-1.488 -3.508,-2.324 -5.613,-2.324l-0,0Zm28.672,-26.469c-4.383,0 -7.938,3.551 -7.938,7.934l0,84.688c0,4.382 3.555,7.933 7.938,7.933c4.383,0 7.937,-3.551 7.937,-7.933l0,-84.688c-0.027,-4.371 -3.566,-7.907 -7.937,-7.934Zm28.672,-15.871l-0,-0.004c-2.113,-0.012 -4.145,0.82 -5.645,2.309c-1.5,1.488 -2.343,3.515 -2.343,5.629l-0,116.43c0.336,4.148 3.8,7.347 7.964,7.347c4.161,0 7.625,-3.199 7.961,-7.347l0,-116.43c0,-2.106 -0.836,-4.122 -2.324,-5.61c-1.488,-1.488 -3.508,-2.328 -5.613,-2.328l-0,0.004Zm28.621,15.871c-4.371,0.027 -7.906,3.563 -7.938,7.934l0,84.688c0,4.382 3.555,7.933 7.938,7.933c4.383,0 7.937,-3.551 7.937,-7.933l0,-84.688c0,-4.383 -3.554,-7.934 -7.937,-7.934Zm28.723,26.469c-4.383,0 -7.934,3.555 -7.934,7.938l0,37.02l0,-0.004c0,4.382 3.551,7.937 7.934,7.937c4.383,0 7.937,-3.555 7.937,-7.937l0,-37.016c0.012,-2.11 -0.82,-4.137 -2.308,-5.629c-1.492,-1.489 -3.52,-2.321 -5.629,-2.309l-0,0Zm-335.21,25.141l-32,0c-1.129,-0.129 -2.262,0.23 -3.109,0.988c-0.848,0.758 -1.336,1.84 -1.336,2.981c-0,1.136 0.488,2.219 1.336,2.976c0.847,0.758 1.98,1.118 3.109,0.989l32,-0c1.133,0.129 2.262,-0.231 3.113,-0.989c0.848,-0.757 1.332,-1.839 1.332,-2.976c0,-1.141 -0.484,-2.223 -1.332,-2.981c-0.851,-0.758 -1.98,-1.117 -3.113,-0.988Zm415.694,0l-32,0c-1.133,-0.129 -2.262,0.23 -3.113,0.988c-0.848,0.758 -1.332,1.84 -1.332,2.981c-0,1.136 0.484,2.219 1.332,2.976c0.851,0.758 1.98,1.118 3.113,0.989l32,-0c1.129,0.129 2.262,-0.231 3.109,-0.989c0.848,-0.757 1.336,-1.839 1.336,-2.976c0,-1.141 -0.488,-2.223 -1.336,-2.981c-0.847,-0.758 -1.98,-1.117 -3.109,-0.988Zm-51.867,-9.269c-2.145,-0.067 -4.223,0.738 -5.762,2.234c-1.535,1.5 -2.394,3.559 -2.379,5.703l0,10.598c0,4.383 3.555,7.938 7.938,7.938c4.383,-0 7.933,-3.555 7.933,-7.938l0,-10.598c0.032,-4.316 -3.414,-7.852 -7.73,-7.937Z" style="fill:#fff;fill-rule:nonzero;"/></g></svg>
