<?xml version="1.0" encoding="UTF-8" standalone="no"?><!DOCTYPE svg PUBLIC "-//W3C//DTD SVG 1.1//EN" "http://www.w3.org/Graphics/SVG/1.1/DTD/svg11.dtd"><svg width="100%" height="100%" viewBox="0 0 152 152" version="1.1" xmlns="http://www.w3.org/2000/svg" xmlns:xlink="http://www.w3.org/1999/xlink" xml:space="preserve" xmlns:serif="http://www.serif.com/" style="fill-rule:evenodd;clip-rule:evenodd;stroke-linejoin:round;stroke-miterlimit:2;"><g id="Condenser" transform="matrix(0.240761,0,0,0.240761,14.3653,2.7043)"><path d="M192.71,123.48c-0.035,0.078 -0.07,0.152 -0.102,0.23c-1.293,3.016 -1.875,6.325 -1.664,9.665l7.028,110.05c-6.211,0.82 -11,6.132 -11,12.566l-0,11.27c-0,6.527 4.929,11.902 11.27,12.602l-0,57.836c-0,3.359 1.336,6.585 3.714,8.964c2.379,2.375 5.602,3.711 8.965,3.711l12.68,0l0,9.864c0,4.394 2.235,8.269 5.633,10.543l0,26.082c0,2.332 1.895,4.226 4.227,4.226l45.078,0c2.332,0 4.226,-1.894 4.226,-4.226l0,-26.082c3.399,-2.274 5.637,-6.149 5.637,-10.543l-0,-9.864l12.676,0c3.363,0 6.59,-1.336 8.965,-3.711c2.379,-2.379 3.715,-5.605 3.715,-8.964l-0,-57.836c6.339,-0.7 11.27,-6.075 11.27,-12.602l-0,-11.27c-0,-6.434 -4.79,-11.746 -11,-12.566l7.027,-110.05c0.211,-3.34 -0.371,-6.649 -1.664,-9.665c-0.032,-0.078 -0.067,-0.152 -0.102,-0.23c-0.953,-2.152 -2.269,-4.156 -3.914,-5.91c-3.992,-4.258 -9.57,-6.672 -15.41,-6.672l-87.93,-0c-5.84,-0 -11.418,2.414 -15.41,6.672c-1.644,1.754 -2.961,3.758 -3.914,5.91l-0.001,0Zm81.602,249.44l0,19.723l-36.625,0l0,-19.723l36.625,0Zm-42.262,-22.539l47.898,0l0,9.863c0,2.332 -1.894,4.227 -4.227,4.227l-39.445,-0c-2.332,-0 -4.226,-1.895 -4.226,-4.227l-0,-9.863Zm73.254,-14.812c-1.344,0.477 -2.773,0.727 -4.227,0.727l-90.156,-0c-1.453,-0 -2.882,-0.25 -4.226,-0.727l-0,2.137c-0,1.121 0.445,2.191 1.238,2.988c0.793,0.793 1.867,1.234 2.988,1.234l90.156,0c1.121,0 2.196,-0.441 2.989,-1.234c0.793,-0.797 1.238,-1.867 1.238,-2.988l-0,-2.137Zm-0,-11.953l-0,-43.668l-98.609,0l-0,43.668c-0,1.121 0.445,2.195 1.238,2.992c0.793,0.789 1.867,1.235 2.989,1.235l90.156,-0c1.121,-0 2.195,-0.446 2.988,-1.235c0.793,-0.797 1.238,-1.871 1.238,-2.992l-0,0Zm-46.316,-39.613c-1.648,-1.648 -4.328,-1.648 -5.977,0l-16.906,16.902c-1.648,1.652 -1.648,4.328 0,5.981l16.906,16.902c1.649,1.648 4.328,1.648 5.977,-0l16.906,-16.902c1.648,-1.653 1.648,-4.329 0,-5.981l-16.906,-16.902Zm-2.988,8.965l10.93,10.926l-10.93,10.93l-10.93,-10.93l10.93,-10.926Zm60.574,-36.969l-0,11.27c-0,2.332 -1.895,4.226 -4.227,4.226l-112.7,0c-2.332,0 -4.227,-1.894 -4.227,-4.226l0,-11.27c0,-2.332 1.895,-4.227 4.227,-4.227l112.7,0c2.332,0 4.227,1.895 4.227,4.227Zm-37.512,-20l7.324,7.32l7.566,0l7.325,-7.32l-11.109,-11.109l-11.106,11.109Zm-7.325,7.32l2.696,0l-1.348,-1.344l-1.348,1.344Zm-26.848,-7.32l7.325,7.32l7.57,0l7.324,-7.32l-11.109,-11.109l-11.11,11.109Zm-7.32,7.32l2.692,0l-1.348,-1.344l-1.344,1.344Zm-26.848,-7.32l7.324,7.32l7.567,0l7.328,-7.32l-11.109,-11.109l-11.11,11.109Zm17.086,-17.086l11.105,11.105l11.109,-11.105l-11.109,-11.109l-11.105,11.109Zm34.168,-0l11.109,11.105l11.105,-11.105l-11.105,-11.109l-11.109,11.109Zm-57.773,-10.562l1.332,20.883l10.32,-10.32l-11.105,-11.109l-0.547,0.546Zm91.941,10.562l10.32,10.32l1.332,-20.883l-0.547,-0.547l-11.105,11.11Zm-51.254,-17.086l11.109,11.109l11.109,-11.109l-11.109,-11.109l-11.109,11.109Zm-34.168,-0l11.109,11.109l11.109,-11.109l-11.109,-11.109l-11.109,11.109Zm68.34,-0l11.105,11.109l11.109,-11.109l-11.109,-11.109l-11.105,11.109Zm-51.254,-17.082l11.105,11.109l11.109,-11.109l-11.109,-11.109l-11.105,11.109Zm34.168,-0l11.109,11.109l11.105,-11.109l-11.105,-11.109l-11.109,11.109Zm-59.824,-8.512l1.16,18.184l1.438,1.438l11.105,-11.109l-11.105,-11.109l-2.598,2.596Zm93.992,8.512l11.105,11.109l1.438,-1.438l1.16,-18.184l-2.598,-2.597l-11.105,11.11Zm-17.082,-17.086l11.105,11.109l11.109,-11.109l-11.109,-11.105l-11.105,11.105Zm-34.172,-0l11.109,11.109l11.109,-11.109l-11.109,-11.105l-11.109,11.105Zm-34.168,-0l11.109,11.109l11.109,-11.109l-11.109,-11.105l-11.109,11.105Zm85.422,-17.086l11.105,11.109l3.77,-3.762l0.879,-13.809l-4.649,-4.644l-11.105,11.106Zm-96.043,-6.461l0.879,13.809l3.77,3.762l11.105,-11.109l-11.105,-11.105l-4.649,4.643Zm61.875,6.461l11.109,11.109l11.105,-11.109l-11.105,-11.105l-11.109,11.105Zm-34.168,-0l11.105,11.109l11.109,-11.109l-11.109,-11.105l-11.105,11.105Zm51.254,-17.082l11.105,11.105l11.109,-11.105l-11.109,-11.109l-11.105,11.109Zm-68.34,-0l11.109,11.105l11.109,-11.105l-11.109,-11.109l-11.109,11.109Zm34.168,-0l11.109,11.105l11.109,-11.105l-11.109,-11.109l-11.109,11.109Zm20.035,-14.137l8.16,8.16l8.161,-8.16l-16.321,-0Zm-34.168,-0l8.156,8.16l8.161,-8.16l-16.317,-0Zm68.336,-0l8.156,8.16l2.957,-2.953c-0.304,-0.422 -0.636,-0.82 -0.996,-1.203c-2.394,-2.555 -5.742,-4.004 -9.246,-4.004l-0.871,-0Zm-86.188,-0l-0.871,-0c-3.504,-0 -6.851,1.449 -9.246,4.004c-0.359,0.383 -0.691,0.781 -0.996,1.203l2.957,2.953l8.156,-8.16Z" style="fill:#fff;"/></g></svg>
