<?xml version="1.0" encoding="UTF-8" standalone="no"?><!DOCTYPE svg PUBLIC "-//W3C//DTD SVG 1.1//EN" "http://www.w3.org/Graphics/SVG/1.1/DTD/svg11.dtd"><svg width="100%" height="100%" viewBox="0 0 152 152" version="1.1" xmlns="http://www.w3.org/2000/svg" xmlns:xlink="http://www.w3.org/1999/xlink" xml:space="preserve" xmlns:serif="http://www.serif.com/" style="fill-rule:evenodd;clip-rule:evenodd;stroke-linejoin:round;stroke-miterlimit:2;"><g id="OsmoPocket" transform="matrix(0.176232,0,0,0.176232,29.7227,19.603)"><path d="M236.04,101.28l0,24.418c0,4.359 3.539,7.879 7.879,7.879l38,-0c4.359,-0 7.879,-3.539 7.879,-7.879l-0,-24.418c-0,-4.359 -3.539,-7.879 -7.879,-7.879l-38,0c-4.359,0.039 -7.879,3.578 -7.879,7.879Zm27.121,21.762c-5.121,0 -9.262,-4.141 -9.262,-9.262c0,-5.121 4.141,-9.261 9.262,-9.261c5.121,-0 9.262,4.14 9.262,9.261c0.019,5.059 -4.141,9.262 -9.262,9.262Zm46.759,94.658l-2.102,0l0,-14.238c0,-1.379 -0.558,-2.66 -1.539,-3.641l-11.359,-11.219l0,-16.84c0,-2.82 -2.301,-5.121 -5.121,-5.121l-5.422,0l0,-15.719l4.66,0c1.219,0 2.461,-0.461 3.379,-1.281l5.121,-4.5l8.7,0c2.82,0 5.121,-2.301 5.121,-5.121l-0.02,-52.52c0,-2.82 -2.301,-5.121 -5.121,-5.121l-8.601,-0l-5.122,-4.86c-0.98,-0.921 -2.199,-1.441 -3.539,-1.441l-52.219,0c-1.339,0 -2.558,0.52 -3.539,1.441l-5.121,4.86l-8.601,-0c-2.821,-0 -5.122,2.301 -5.122,5.121l0,52.48c0,2.82 2.301,5.121 5.122,5.121l8.699,0l5.121,4.5c0.922,0.82 2.16,1.281 3.379,1.281l4.14,0l0,15.719l-5.422,0c-2.82,0 -5.121,2.301 -5.121,5.121l0,16.84l-11.359,11.219c-0.98,0.981 -1.539,2.262 -1.539,3.641l0,14.238l-2.101,0c-7.161,0 -12.961,5.781 -12.961,12.961l-0,50.738c-0,7.16 5.781,12.961 12.961,12.961l2.101,0l0,112.8c0,13.461 10.961,24.48 24.48,24.48l41.48,0c13.461,0 24.48,-10.961 24.48,-24.48l0,-112.82l2.102,0c7.16,0 12.961,-5.781 12.961,-12.961l-0,-50.738c-0.02,-7.121 -5.801,-12.898 -12.961,-12.898l0.005,-0.003Zm-76.402,-81.562c-0.922,-0.82 -2.16,-1.281 -3.379,-1.281l-5.519,-0l-0,-42.238l5.519,-0c1.34,-0 2.559,-0.52 3.539,-1.442l5.121,-4.859l48.238,-0l5.121,4.859c0.981,0.922 2.2,1.442 3.539,1.442l5.52,-0l0,42.238l-5.519,-0c-1.219,-0 -2.461,0.461 -3.379,1.281l-5.121,4.5l-48.5,-0l-5.18,-4.5Zm-5.84,69.422l11.059,-10.961c1.078,-0.922 1.801,-2.359 1.801,-3.898l-0,-13.879l5.422,-0c2.82,-0 5.121,-2.301 5.121,-5.122l-0,-20.84l23.039,0l0,20.84c0,2.821 2.301,5.122 5.121,5.122l5.422,-0l0,13.879c0,1.539 0.66,2.859 1.738,3.839l11.16,11l0,12.082l-69.879,0.039l-0.004,-12.101Zm69.938,201.54c0,7.84 -6.398,14.238 -14.238,14.238l-41.48,-0c-7.84,-0 -14.238,-6.398 -14.238,-14.238l0.02,-112.8l69.879,-0l0.019,112.8l0.038,-0Zm15,-125.76c0,1.48 -1.219,2.719 -2.719,2.719l-94.562,-0c-1.48,-0 -2.718,-1.219 -2.718,-2.719l-0,-50.738c-0,-1.481 1.218,-2.719 2.718,-2.719l94.562,0c1.481,0 2.719,1.219 2.719,2.719l0,50.738Zm-64.556,91.5c-8.078,-0 -14.602,-6.559 -14.602,-14.602c-0,-8.078 6.559,-14.602 14.602,-14.602c8.078,-0 14.602,6.559 14.602,14.602c-0,8.102 -6.559,14.602 -14.602,14.602Zm36.98,-5.219c-5.18,0 -9.359,-4.199 -9.359,-9.359c-0,-5.18 4.199,-9.36 9.359,-9.36c5.18,0 9.359,4.2 9.359,9.36c0,5.16 -4.199,9.359 -9.359,9.359Zm19.24,-87.701l-83.82,0c-1.68,0 -3.121,-1.379 -3.121,-3.121l-0,-41.359c-0,-1.68 1.379,-3.121 3.121,-3.121l83.82,-0c1.68,-0 3.121,1.379 3.121,3.121l0,41.359c0,1.719 -1.422,3.121 -3.121,3.121Z" style="fill:#fff;fill-rule:nonzero;"/></g></svg>
