<?xml version="1.0" encoding="UTF-8" standalone="no"?><!DOCTYPE svg PUBLIC "-//W3C//DTD SVG 1.1//EN" "http://www.w3.org/Graphics/SVG/1.1/DTD/svg11.dtd"><svg width="100%" height="100%" viewBox="0 0 512 512" version="1.1" xmlns="http://www.w3.org/2000/svg" xmlns:xlink="http://www.w3.org/1999/xlink" xml:space="preserve" xmlns:serif="http://www.serif.com/" style="fill-rule:evenodd;clip-rule:evenodd;stroke-linejoin:round;stroke-miterlimit:2;"><path d="M239.03,306.91L306.905,239.035C311.421,234.539 313.96,228.43 313.967,222.058C313.971,215.683 311.444,209.57 306.94,205.062C302.432,200.558 296.319,198.031 289.944,198.035C283.573,198.043 277.464,200.582 272.967,205.097L205.092,272.972C200.577,277.468 198.038,283.577 198.03,289.949C198.026,296.324 200.553,302.437 205.057,306.945C209.565,311.449 215.678,313.976 222.053,313.973C228.424,313.965 234.533,311.426 239.03,306.91ZM335.21,40.844C299.124,40.731 264.491,55.055 239.03,80.625L193.749,125.906C189.233,130.402 186.694,136.511 186.686,142.883C186.683,149.258 189.21,155.371 193.718,159.875C198.222,164.383 204.335,166.91 210.71,166.906C217.081,166.898 223.19,164.359 227.687,159.844L272.968,114.563C295.206,92.352 327.601,83.688 357.96,91.829C388.315,99.969 412.026,123.684 420.167,154.044C428.307,184.399 419.639,216.794 397.429,239.032L352.148,284.313C346.085,290.375 343.718,299.211 345.937,307.493C348.156,315.775 354.624,322.243 362.906,324.462C371.187,326.681 380.023,324.313 386.086,318.251L431.367,272.97C456.883,247.474 471.222,212.884 471.226,176.814C471.23,140.744 456.898,106.15 431.39,80.65C405.878,55.146 371.281,40.83 335.21,40.845L335.21,40.844ZM176.8,471.14C212.882,471.261 247.511,456.941 272.972,431.374L318.253,386.093C324.316,380.03 326.683,371.195 324.464,362.913C322.245,354.631 315.776,348.163 307.495,345.944C299.213,343.725 290.378,346.092 284.315,352.155L239.034,397.436C222.53,413.956 200.139,423.241 176.788,423.248C153.44,423.256 131.042,413.982 114.53,397.471C98.022,380.955 88.749,358.561 88.757,335.209C88.765,311.857 98.05,289.467 114.573,272.967L159.854,227.686C164.369,223.19 166.909,217.081 166.916,210.709C166.92,204.334 164.393,198.221 159.889,193.717C155.381,189.209 149.268,186.682 142.893,186.686C136.522,186.694 130.413,189.233 125.916,193.748L80.635,239.029C55.115,264.521 40.776,299.115 40.772,335.185C40.768,371.255 55.1,405.849 80.612,431.349C106.128,456.849 140.729,471.161 176.8,471.138L176.8,471.14Z" style="fill:white;fill-rule:nonzero;"/></svg>