<?xml version="1.0" encoding="UTF-8" standalone="no"?><!DOCTYPE svg PUBLIC "-//W3C//DTD SVG 1.1//EN" "http://www.w3.org/Graphics/SVG/1.1/DTD/svg11.dtd"><svg width="100%" height="100%" viewBox="0 0 512 512" version="1.1" xmlns="http://www.w3.org/2000/svg" xmlns:xlink="http://www.w3.org/1999/xlink" xml:space="preserve" xmlns:serif="http://www.serif.com/" style="fill-rule:evenodd;clip-rule:evenodd;stroke-linejoin:round;stroke-miterlimit:2;"><path d="M499.2,256C499.2,390.14 390.15,499.2 256,499.2C121.85,499.2 12.8,390.15 12.8,256C12.8,121.85 121.85,12.8 256,12.8C390.15,12.8 499.2,121.85 499.2,256ZM256,51.2C142.85,51.2 51.2,142.848 51.2,256C51.2,369.152 142.848,460.8 256,460.8C369.152,460.8 460.8,369.152 460.8,256C460.8,142.848 369.152,51.2 256,51.2ZM281.602,381.95L281.602,228.35C281.602,214.014 270.336,202.748 256,202.748C241.664,202.748 230.398,214.014 230.398,228.35L230.398,381.95C230.398,396.286 241.664,407.552 256,407.552C270.336,407.548 281.602,396.286 281.602,381.95ZM256,104.45C236.031,104.45 220.16,120.321 220.16,140.29C220.16,160.259 236.031,176.13 256,176.13C275.969,176.13 291.84,160.259 291.84,140.29C291.84,120.321 275.969,104.45 256,104.45Z" style="fill:white;fill-rule:nonzero;"/></svg>