<?xml version="1.0" encoding="UTF-8" standalone="no"?><!DOCTYPE svg PUBLIC "-//W3C//DTD SVG 1.1//EN" "http://www.w3.org/Graphics/SVG/1.1/DTD/svg11.dtd"><svg width="100%" height="100%" viewBox="0 0 32 32" version="1.1" xmlns="http://www.w3.org/2000/svg" xmlns:xlink="http://www.w3.org/1999/xlink" xml:space="preserve" xmlns:serif="http://www.serif.com/" style="fill-rule:evenodd;clip-rule:evenodd;stroke-linejoin:round;stroke-miterlimit:2;"><g transform="matrix(0.0625023,0,0,0.0625023,0.000481268,-0.0762188)"><path d="M288.84,333.32C302.86,323.121 312,306.621 312,288C312,257.121 286.879,231.996 255.996,231.996C225.113,231.996 199.992,257.117 199.992,288C199.992,306.621 209.133,323.141 223.152,333.32C181.851,347.101 151.996,386.117 151.996,432C151.996,436.422 155.574,440 159.996,440L351.996,440C356.418,440 359.996,436.422 359.996,432C359.996,386.121 330.137,347.102 288.84,333.32ZM215.996,288C215.996,265.941 233.937,248 255.996,248C278.055,248 295.996,265.941 295.996,288C295.996,310.059 278.055,328 255.996,328C233.937,328 215.996,310.059 215.996,288ZM168.355,424C172.394,379.199 210.156,344 255.996,344C301.816,344 339.594,379.199 343.637,424L168.355,424ZM256,168C273.641,168 288,153.641 288,136C288,118.34 273.641,104 256,104C238.359,104 224,118.359 224,136C224,153.66 238.359,168 256,168ZM256,120C264.82,120 272,127.18 272,136C272,144.82 264.82,152 256,152C247.18,152 240,144.82 240,136C240,127.18 247.18,120 256,120ZM256,200C314.996,200 364.02,143.598 366.08,141.203C368.639,138.203 368.639,133.785 366.08,130.805C364.021,128.407 314.998,72.008 256,72.008C197,72.008 147.98,128.41 145.92,130.805C143.361,133.805 143.361,138.223 145.92,141.203C147.979,143.601 197.002,200 256,200ZM256,88C297.801,88 335.883,122.602 349.039,136C335.879,149.398 297.797,184 256,184C214.199,184 176.117,149.398 162.961,136C176.121,122.602 214.203,88 256,88ZM140.34,392L16.36,392C20.399,347.199 58.161,312 104.001,312C130.88,312 155.923,324.039 172.743,345.059C175.505,348.5 180.544,349.059 183.981,346.297C187.422,343.536 187.981,338.496 185.219,335.059C172.457,319.098 155.66,307.539 136.86,301.297C150.86,291.098 159.981,274.617 159.981,255.996C159.981,225.117 134.86,199.992 103.977,199.992C73.094,199.992 47.973,225.113 47.973,255.996C47.973,274.617 57.114,291.137 71.133,301.316C29.852,315.097 -0.008,354.113 -0.008,399.996C-0.008,404.418 3.57,407.996 7.992,407.996L140.332,407.996C144.754,407.996 148.332,404.418 148.332,399.996C148.332,395.574 144.754,391.996 140.332,391.996L140.34,392ZM64,256C64,233.941 81.941,216 104,216C126.059,216 144,233.941 144,256C144,278.059 126.059,296 104,296C81.941,296 64,278.059 64,256ZM440.84,301.32C454.86,291.121 464,274.621 464,256C464,225.121 438.879,199.996 407.996,199.996C377.113,199.996 351.992,225.117 351.992,256C351.992,274.602 361.133,291.121 375.113,301.301C356.312,307.543 339.511,319.102 326.754,335.063C323.992,338.504 324.555,343.544 327.992,346.301C331.434,349.063 336.473,348.5 339.23,345.063C356.05,324.063 381.109,312.004 407.972,312.004C453.812,312.004 491.57,347.203 495.613,392.004L371.633,392.004C367.211,392.004 363.633,395.582 363.633,400.004C363.633,404.426 367.211,408.004 371.633,408.004L503.973,408.004C508.395,408.004 511.973,404.426 511.973,400.004C511.973,354.125 482.114,315.106 440.817,301.324L440.84,301.32ZM367.996,256C367.996,233.941 385.937,216 407.996,216C430.055,216 447.996,233.941 447.996,256C447.996,278.059 430.055,296 407.996,296C385.937,296 367.996,278.059 367.996,256Z" style="fill:currentColor;fill-rule:nonzero;"/></g></svg>