<?xml version="1.0" encoding="UTF-8" standalone="no"?><!DOCTYPE svg PUBLIC "-//W3C//DTD SVG 1.1//EN" "http://www.w3.org/Graphics/SVG/1.1/DTD/svg11.dtd"><svg width="100%" height="100%" viewBox="0 0 430 426" version="1.1" xmlns="http://www.w3.org/2000/svg" xmlns:xlink="http://www.w3.org/1999/xlink" xml:space="preserve" xmlns:serif="http://www.serif.com/" style="fill-rule:evenodd;clip-rule:evenodd;stroke-linejoin:round;stroke-miterlimit:2;"><g transform="matrix(1,0,0,1,-56.3605,-29.708)"><path d="M71.07,56.93L455.07,440.93L440.929,455.071L56.929,71.071L71.07,56.93ZM193.54,217.83L207.681,231.971L163.025,276.627L163.545,277.51C172.58,293.244 170.595,313.58 157.595,327.295L156.798,328.107L141.243,343.666L186.497,388.92L152.88,422.537L56.36,400.264L97.403,359.221L111.544,373.362L96.017,388.893L146.576,400.557L158.213,388.92L112.959,343.666L142.658,313.967C151.041,305.585 151.244,292.119 143.272,283.49L142.658,282.854L135.588,275.783L193.54,217.83ZM284.048,308.338L298.193,322.483L240.24,380.436L233.17,373.362C224.787,364.983 211.322,364.776 202.693,372.749L202.056,373.362L194.986,380.436L166.701,352.151L180.842,338.006L195.834,352.994L196.713,352.474C209.615,345.068 225.611,345.068 238.514,352.474L239.392,352.994L284.048,308.338ZM381.661,29.708L486.311,134.358L333.191,287.478L319.046,273.333L458.026,134.353L381.659,57.986L240.679,198.966L226.538,184.825L381.661,29.708Z" style="fill:currentColor;fill-rule:nonzero;"/></g></svg>