<?xml version="1.0" encoding="UTF-8" standalone="no"?><!DOCTYPE svg PUBLIC "-//W3C//DTD SVG 1.1//EN" "http://www.w3.org/Graphics/SVG/1.1/DTD/svg11.dtd"><svg width="100%" height="100%" viewBox="0 0 400 400" version="1.1" xmlns="http://www.w3.org/2000/svg" xmlns:xlink="http://www.w3.org/1999/xlink" xml:space="preserve" xmlns:serif="http://www.serif.com/" style="fill-rule:evenodd;clip-rule:evenodd;stroke-linejoin:round;stroke-miterlimit:2;"><g transform="matrix(0.78113,0,0,0.78113,0.0501173,-0.0308626)"><path d="M255.69,512C245.838,511.988 235.991,511.426 226.202,510.309C219.202,509.488 212.776,506.027 208.241,500.633C203.702,495.238 201.389,488.317 201.776,481.281C202.245,473.156 200.186,465.086 195.886,458.172C191.589,451.262 185.261,445.852 177.765,442.676C170.186,439.899 161.964,439.387 154.097,441.207C146.233,443.023 139.07,447.094 133.476,452.914C128.737,458.117 122.195,461.32 115.183,461.883C108.167,462.441 101.199,460.316 95.691,455.938C80.703,443.84 67.117,430.102 55.195,414.977C50.909,409.508 48.839,402.625 49.398,395.7C49.96,388.774 53.105,382.309 58.214,377.602C64.195,372.184 68.382,365.071 70.21,357.211C72.042,349.351 71.429,341.121 68.452,333.621C65.562,326.371 60.55,320.16 54.073,315.805C47.597,311.449 39.956,309.144 32.151,309.195L31.487,309.195C18.382,309.195 3.175,299.773 1.585,284.672C-0.614,265.328 -0.614,245.801 1.585,226.457C2.308,219.567 5.628,213.207 10.866,208.672C16.105,204.137 22.874,201.762 29.796,202.035C37.996,202.321 46.101,200.2 53.105,195.934C60.113,191.664 65.714,185.438 69.222,178.024C72.312,170.489 72.984,162.184 71.152,154.251C69.316,146.317 65.066,139.149 58.98,133.735C53.761,128.934 50.578,122.317 50.082,115.243C49.586,108.169 51.82,101.173 56.32,95.692C68.484,80.473 82.386,66.727 97.742,54.735C103.242,50.465 110.148,48.418 117.09,48.997C124.028,49.575 130.5,52.735 135.219,57.856C140.793,63.61 147.903,67.633 155.703,69.45C163.504,71.266 171.66,70.798 179.199,68.098C186.637,64.989 192.949,59.688 197.293,52.899C201.637,46.11 203.809,38.161 203.52,30.106C203.27,23.13 205.66,16.317 210.219,11.032C214.774,5.743 221.16,2.372 228.098,1.587C247.243,-0.542 266.567,-0.475 285.696,1.794C292.688,2.591 299.11,6.032 303.649,11.407C308.188,16.786 310.504,23.692 310.118,30.719C309.668,38.844 311.731,46.907 316.028,53.813C320.325,60.724 326.645,66.137 334.133,69.325C341.711,72.111 349.934,72.622 357.801,70.806C365.668,68.986 372.832,64.915 378.418,59.087C383.18,53.899 389.742,50.727 396.766,50.216C403.785,49.7 410.739,51.884 416.204,56.321C431.251,68.387 444.872,82.13 456.806,97.282C461.087,102.771 463.154,109.669 462.595,116.606C462.032,123.548 458.892,130.024 453.786,134.758C445.845,141.942 441.184,152.059 440.888,162.762C440.595,173.461 444.685,183.821 452.216,191.434C459.748,199.044 470.064,203.243 480.771,203.059C493.673,203.059 508.673,212.481 510.365,227.582L510.365,227.586C512.565,246.926 512.565,266.457 510.365,285.797C509.529,292.809 506.061,299.235 500.658,303.781C495.256,308.324 488.33,310.648 481.283,310.273L478.772,310.273C468.127,310.269 457.936,314.594 450.542,322.253C443.147,329.914 439.187,340.253 439.565,350.894C439.943,361.535 444.635,371.562 452.561,378.675C457.748,383.398 460.951,389.909 461.533,396.902C462.111,403.895 460.022,410.847 455.682,416.359C443.491,431.554 429.592,445.297 414.26,457.32C408.791,461.598 401.908,463.656 394.987,463.078C388.065,462.496 381.62,459.324 376.936,454.195C371.346,448.441 364.217,444.414 356.401,442.597C348.584,440.781 340.409,441.254 332.854,443.957C325.424,447.047 319.12,452.328 314.772,459.098C310.428,465.867 308.248,473.805 308.533,481.844C308.768,488.805 306.369,495.598 301.815,500.867C297.256,506.136 290.881,509.488 283.96,510.257C274.573,511.339 265.14,511.921 255.694,512L255.69,512ZM230.088,482.203L230.092,482.203C246.678,484.051 263.424,484.051 280.01,482.203C279.643,468.473 283.447,454.957 290.924,443.437C298.404,431.917 309.201,422.941 321.893,417.691C334.725,412.769 348.717,411.738 362.131,414.726C375.545,417.714 387.779,424.586 397.311,434.484C410.538,424.019 422.557,412.121 433.151,399C422.948,389.598 415.881,377.285 412.913,363.727C409.948,350.172 411.222,336.032 416.561,323.227C421.792,310.95 430.495,300.469 441.6,293.075C452.709,285.681 465.733,281.692 479.077,281.602L482.304,281.602C484.105,265.043 484.105,248.34 482.304,231.782C481.823,231.466 481.284,231.259 480.718,231.169C462.421,231.364 444.827,224.13 431.964,211.118C419.101,198.106 412.069,180.43 412.476,162.138C412.883,143.846 420.695,126.501 434.124,114.076C423.886,101.06 412.226,89.228 399.358,78.799C389.803,88.776 377.491,95.678 363.999,98.631C350.503,101.588 336.433,100.455 323.585,95.389C310.761,90.014 299.897,80.83 292.464,69.084C285.027,57.334 281.378,43.588 282.007,29.697C265.421,27.849 248.679,27.849 232.089,29.697C232.429,43.42 228.612,56.924 221.136,68.439C213.663,79.951 202.882,88.935 190.206,94.209C177.401,99.119 163.433,100.154 150.042,97.185C136.647,94.221 124.425,87.381 114.894,77.517C101.667,87.982 89.648,99.88 79.054,113.001C89.242,122.435 96.292,134.767 99.257,148.333C102.226,161.899 100.96,176.052 95.64,188.876C89.999,201.513 80.749,212.192 69.05,219.583C57.355,226.97 43.73,230.735 29.902,230.399C28.097,246.922 28.097,263.594 29.902,280.114C30.484,280.47 31.125,280.712 31.796,280.833C45.226,280.708 58.382,284.618 69.566,292.06C80.75,299.502 89.441,310.126 94.515,322.56C99.687,335.302 100.871,349.318 97.906,362.744C94.945,376.174 87.976,388.389 77.926,397.775C88.266,410.884 100.047,422.787 113.051,433.255C122.582,423.247 134.895,416.317 148.399,413.36C161.903,410.403 175.981,411.555 188.825,416.665C201.622,422.016 212.47,431.165 219.907,442.876C227.341,454.587 231.005,468.294 230.399,482.153L230.088,482.203ZM256.408,351.273C231.256,351.289 207.131,341.308 189.338,323.531C171.545,305.758 161.545,281.636 161.533,256.488C161.525,231.336 171.51,207.211 189.287,189.422C207.068,171.633 231.189,161.637 256.338,161.629C281.49,161.625 305.615,171.613 323.4,189.399C341.185,207.18 351.177,231.301 351.177,256.454C351.165,281.591 341.177,305.692 323.407,323.47C305.637,341.247 281.544,351.251 256.407,351.275L256.408,351.273ZM256.408,189.993L256.408,189.997C238.756,189.997 221.826,197.009 209.342,209.493C196.862,221.973 189.846,238.903 189.846,256.555C189.846,274.207 196.862,291.137 209.342,303.621C221.826,316.101 238.756,323.117 256.408,323.117C274.06,323.117 290.99,316.101 303.474,303.621C315.954,291.137 322.966,274.207 322.966,256.555C322.982,238.895 315.974,221.95 303.489,209.457C291.005,196.965 274.067,189.945 256.407,189.945L256.408,189.993Z" style="fill:currentColor;fill-rule:nonzero;"/></g></svg>