<?xml version="1.0" encoding="UTF-8" standalone="no"?><!DOCTYPE svg PUBLIC "-//W3C//DTD SVG 1.1//EN" "http://www.w3.org/Graphics/SVG/1.1/DTD/svg11.dtd"><svg width="100%" height="100%" viewBox="0 0 400 400" version="1.1" xmlns="http://www.w3.org/2000/svg" xmlns:xlink="http://www.w3.org/1999/xlink" xml:space="preserve" xmlns:serif="http://www.serif.com/" style="fill-rule:evenodd;clip-rule:evenodd;stroke-linejoin:round;stroke-miterlimit:2;"><g transform="matrix(1.17212,0,0,1.17212,-100.028,-100.101)"><path d="M96.039,85.402C90.18,85.382 85.398,90.101 85.34,95.961L85.34,415.961C85.32,418.801 86.461,421.52 88.461,423.543C90.481,425.543 93.199,426.684 96.043,426.664L416.043,426.664C421.922,426.606 426.621,421.824 426.602,415.965C426.544,410.164 421.84,405.465 416.043,405.406L106.603,405.406L106.603,95.966C106.545,90.165 101.841,85.466 96.044,85.407L96.039,85.402ZM149.28,245.4C143.479,245.459 138.78,250.162 138.721,255.959L138.721,362.739L138.721,362.719C138.78,368.52 143.483,373.219 149.28,373.278C155.139,373.298 159.921,368.579 159.979,362.719L159.979,255.939L159.979,255.959C159.92,250.1 155.139,245.381 149.28,245.4L149.28,245.4ZM213.38,160.04C207.501,160.02 202.72,164.739 202.661,170.599L202.661,362.719C202.72,368.578 207.501,373.297 213.38,373.278C219.239,373.298 224.021,368.579 224.079,362.719L224.079,170.599C224.02,164.74 219.239,160.021 213.38,160.04ZM277.3,202.72C271.441,202.7 266.659,207.419 266.601,213.279L266.601,362.719C266.66,368.578 271.441,373.297 277.3,373.278C283.179,373.298 287.96,368.579 288.019,362.719L288.019,213.279C287.96,207.42 283.179,202.701 277.3,202.72ZM341.4,288.08C335.541,288.06 330.759,292.76 330.701,298.639L330.701,362.741L330.701,362.721C330.76,368.581 335.541,373.299 341.4,373.28C347.201,373.222 351.9,368.519 351.959,362.721L351.959,298.619L351.959,298.639C351.9,292.838 347.197,288.139 341.4,288.08L341.4,288.08ZM405.34,181.3C402.5,181.3 399.762,182.421 397.758,184.441C395.739,186.441 394.617,189.179 394.637,192.023L394.637,362.723C394.695,368.582 399.477,373.301 405.336,373.282C411.195,373.301 415.977,368.582 416.035,362.723L416.035,192.023C416.054,189.183 414.933,186.445 412.914,184.421C410.914,182.421 408.176,181.28 405.332,181.3L405.34,181.3Z" style="fill:currentColor;fill-rule:nonzero;"/></g></svg>