<?xml version="1.0" encoding="UTF-8" standalone="no"?><!DOCTYPE svg PUBLIC "-//W3C//DTD SVG 1.1//EN" "http://www.w3.org/Graphics/SVG/1.1/DTD/svg11.dtd"><svg width="100%" height="100%" viewBox="0 0 32 32" version="1.1" xmlns="http://www.w3.org/2000/svg" xmlns:xlink="http://www.w3.org/1999/xlink" xml:space="preserve" xmlns:serif="http://www.serif.com/" style="fill-rule:evenodd;clip-rule:evenodd;stroke-linejoin:round;stroke-miterlimit:2;"><g transform="matrix(0.142858,0,0,0.142858,-20.5718,-3.5047)"><path d="M256,168C273.641,168 288,153.641 288,136C288,118.34 273.641,104 256,104C238.359,104 224,118.359 224,136C224,153.66 238.359,168 256,168ZM256,120C264.82,120 272,127.18 272,136C272,144.82 264.82,152 256,152C247.18,152 240,144.82 240,136C240,127.18 247.18,120 256,120ZM256,200C314.996,200 364.02,143.598 366.08,141.203C368.639,138.203 368.639,133.785 366.08,130.805C364.021,128.407 314.998,72.008 256,72.008C197,72.008 147.98,128.41 145.92,130.805C143.361,133.805 143.361,138.223 145.92,141.203C147.979,143.601 197.002,200 256,200ZM256,88C297.801,88 335.883,122.602 349.039,136C335.879,149.398 297.797,184 256,184C214.199,184 176.117,149.398 162.961,136C176.121,122.602 214.203,88 256,88Z" style="fill:currentColor;fill-rule:nonzero;"/></g></svg>