<?xml version="1.0" encoding="UTF-8" standalone="no"?><!DOCTYPE svg PUBLIC "-//W3C//DTD SVG 1.1//EN" "http://www.w3.org/Graphics/SVG/1.1/DTD/svg11.dtd"><svg width="100%" height="100%" viewBox="0 0 430 393" version="1.1" xmlns="http://www.w3.org/2000/svg" xmlns:xlink="http://www.w3.org/1999/xlink" xml:space="preserve" xmlns:serif="http://www.serif.com/" style="fill-rule:evenodd;clip-rule:evenodd;stroke-linejoin:round;stroke-miterlimit:2;"><g transform="matrix(1,0,0,1,-56.3609,-29.7174)"><path d="M240.24,380.44L233.17,373.366C224.787,364.987 211.322,364.78 202.693,372.753L202.056,373.366L194.986,380.44L166.701,352.155L180.842,338.01L195.834,353.002L196.713,352.479C209.615,345.072 225.611,345.072 238.514,352.479L239.392,352.998L458.032,134.368L381.665,58.001L163.025,276.631L163.545,277.514C172.58,293.248 170.596,313.584 157.596,327.299L156.799,328.111L141.244,343.67L186.498,388.924L152.881,422.541L56.361,400.268L97.404,359.225L111.545,373.366L96.018,388.897L146.577,400.561L158.214,388.924L112.96,343.67L142.659,313.971C151.042,305.589 151.245,292.123 143.272,283.494L142.659,282.858L135.589,275.787L381.659,29.717L486.309,134.367L240.24,380.44Z" style="fill:currentColor;fill-rule:nonzero;"/></g></svg>