<?xml version="1.0" encoding="UTF-8" standalone="no"?><!DOCTYPE svg PUBLIC "-//W3C//DTD SVG 1.1//EN" "http://www.w3.org/Graphics/SVG/1.1/DTD/svg11.dtd"><svg width="100%" height="100%" viewBox="0 0 32 32" version="1.1" xmlns="http://www.w3.org/2000/svg" xmlns:xlink="http://www.w3.org/1999/xlink" xml:space="preserve" xmlns:serif="http://www.serif.com/" style="fill-rule:evenodd;clip-rule:evenodd;stroke-linejoin:round;stroke-miterlimit:2;"><g transform="matrix(0.0825418,0,0,0.0825418,-5.17683,-5.23928)"><path d="M442.4,326.4L386.4,326.4C381.599,326.4 378.4,323.201 378.4,318.4L378.4,72C378.4,67.199 381.599,64 386.4,64L442.4,64C447.201,64 450.4,67.199 450.4,72L450.4,318.4C450.4,322.4 447.201,326.4 442.4,326.4ZM394.4,310.4L434.4,310.4L434.4,80L394.4,80L394.4,310.4ZM238.4,448.8L237.599,448.8C236.798,448.8 236.798,448.8 212.798,442.402C196.798,438.402 186.4,422.402 189.599,406.402C194.4,382.402 202.4,344.004 206.4,325.601L112.798,325.601C90.4,325.601 76.798,321.601 69.599,313.601C61.599,304.8 62.4,293.601 63.201,282.402C63.201,279.202 64.002,276.003 64.002,272.004L64.002,216.805C64.002,215.203 64.002,214.406 64.802,212.805C65.603,212.004 107.2,138.407 154.404,67.205C156.006,64.806 158.404,64.005 160.803,64.005L300.803,64.005C326.405,64.005 347.201,84.806 347.201,111.204L347.201,318.404C347.201,320.006 346.4,322.404 345.599,323.205L243.999,445.605C242.398,447.203 240.8,448.804 238.398,448.804L238.4,448.8ZM216.002,309.6C218.4,309.6 220.803,310.401 222.4,312.799C224.002,314.401 224.799,316.799 224.002,319.198C224.002,319.998 211.201,376.8 204.803,408.8C203.201,416.8 208.002,423.999 216.002,426.402C223.201,428.003 230.4,430.402 235.201,431.202L331.201,314.402L331.201,110.402C331.201,93.601 317.599,79.203 300.803,79.203L164.803,79.203C123.201,142.402 85.604,207.203 79.201,218.403L79.201,272.005C79.201,276.005 79.201,280.005 78.4,283.204C77.599,292.806 77.599,299.204 80.799,302.403C84.799,307.204 95.998,308.802 112.799,308.802L115.998,308.802L215.998,308.806L216.002,309.6Z" style="fill:currentColor;fill-rule:nonzero;"/></g></svg>