<?xml version="1.0" encoding="UTF-8" standalone="no"?><!DOCTYPE svg PUBLIC "-//W3C//DTD SVG 1.1//EN" "http://www.w3.org/Graphics/SVG/1.1/DTD/svg11.dtd"><svg width="100%" height="100%" viewBox="0 0 32 32" version="1.1" xmlns="http://www.w3.org/2000/svg" xmlns:xlink="http://www.w3.org/1999/xlink" xml:space="preserve" xmlns:serif="http://www.serif.com/" style="fill-rule:evenodd;clip-rule:evenodd;stroke-linejoin:round;stroke-miterlimit:2;"><g transform="matrix(0.0808736,0,0,0.0808736,-4.98205,-5.07021)"><path d="M126.4,455.2L69.603,455.2C64.802,455.2 61.603,452.001 61.603,447.2L61.603,196.8C61.603,191.999 64.802,188.8 69.603,188.8L126.404,188.8C131.205,188.8 134.404,191.999 134.404,196.8L134.404,448C134.4,452 131.201,455.199 126.4,455.199L126.4,455.2ZM77.603,439.2L118.404,439.2L118.4,204.8L77.603,204.8L77.603,439.2ZM358.4,456L215.2,456C188.802,456 168.001,434.398 168.001,408.801L168.001,197.601C168.001,195.999 168.802,193.601 169.603,192.8L272.003,66.4C273.604,64.002 276.003,63.201 279.202,63.201C280.003,64.002 280.003,64.002 304.804,70.4C320.804,74.4 331.202,90.4 328.003,107.201C323.202,132.002 314.401,171.201 310.401,189.599L406.401,189.599C429.6,189.599 443.202,193.599 450.401,201.599C458.401,210.4 457.6,222.4 456.799,233.599C456.799,236.798 455.998,240.798 455.998,243.997L455.998,300.798C455.998,302.4 455.998,303.197 455.198,304.798C454.397,305.599 411.999,380.798 363.999,453.598C363.202,455.2 360.803,456.001 358.401,456.001L358.4,456ZM184,200L184,408.8C184,426.402 198.398,439.999 215.199,439.999L353.599,439.999C395.997,375.198 434.4,309.599 440.798,297.599L440.798,243.201C440.798,239.201 440.798,235.201 441.599,232.002C442.4,222.4 442.4,216.002 439.2,212.002C435.2,207.201 424.001,204.803 406.399,204.803L403.2,204.803L300.8,204.799C298.402,204.799 295.999,203.998 294.402,201.6C292.8,199.998 292.003,197.6 292.8,195.201C292.8,194.401 305.601,136.002 311.999,103.201C313.601,95.201 308.8,87.201 300.8,84.803C293.601,83.202 285.601,80.803 280.8,80.002L184,200Z" style="fill:currentColor;fill-rule:nonzero;"/></g></svg>